<svg width="1440" height="860" viewBox="0 0 1440 860" fill="none" xmlns="http://www.w3.org/2000/svg">
  <rect width="1440" height="860" rx="18" fill="#10181D"/>
  <rect x="24" y="24" width="1392" height="812" rx="12" fill="#F5F1EA"/>
  <rect x="24" y="24" width="1392" height="72" rx="12" fill="#123C3A"/>
  <circle cx="62" cy="60" r="7" fill="#D9B46B"/><circle cx="87" cy="60" r="7" fill="#8BB7A7"/><circle cx="112" cy="60" r="7" fill="#F5F1EA" fill-opacity=".45"/>
  <text x="150" y="66" fill="#F5F1EA" font-family="Arial, sans-serif" font-size="20" font-weight="700">FREnTE · ANÁLISE EXPLORATÓRIA</text>
  <text x="80" y="151" fill="#53716C" font-family="Arial, sans-serif" font-size="14" font-weight="700" letter-spacing="2">BACIA HIDROGRÁFICA DO RIO TIETÊ · 2000—2025</text>
  <text x="80" y="205" fill="#102B2B" font-family="Arial, sans-serif" font-size="42" font-weight="700">Pressões Ambientais e</text>
  <text x="80" y="253" fill="#102B2B" font-family="Arial, sans-serif" font-size="42" font-weight="700">Dinâmica Hídrica</text>
  <text x="80" y="292" fill="#5D6D69" font-family="Arial, sans-serif" font-size="18">Dados integrados para revelar padrões, riscos e contexto.</text>
  <g font-family="Arial, sans-serif">
    <rect x="80" y="338" width="286" height="102" rx="10" fill="#E3ECE7"/><text x="104" y="374" fill="#688179" font-size="14">RESERVATÓRIOS</text><text x="104" y="416" fill="#123C3A" font-size="32" font-weight="700">6</text>
    <rect x="386" y="338" width="286" height="102" rx="10" fill="#E3ECE7"/><text x="410" y="374" fill="#688179" font-size="14">REGISTROS</text><text x="410" y="416" fill="#123C3A" font-size="32" font-weight="700">56.982</text>
    <rect x="692" y="338" width="286" height="102" rx="10" fill="#E3ECE7"/><text x="716" y="374" fill="#688179" font-size="14">FOCOS DE CALOR</text><text x="716" y="416" fill="#123C3A" font-size="32" font-weight="700">1.1M</text>
    <rect x="998" y="338" width="338" height="102" rx="10" fill="#D9B46B"/><text x="1022" y="374" fill="#5B4A2B" font-size="14">COBERTURA TEMPORAL</text><text x="1022" y="416" fill="#3C321E" font-size="32" font-weight="700">~84%</text>
  </g>
  <rect x="80" y="484" width="820" height="274" rx="12" fill="#FFFFFF" stroke="#D7E0DA"/>
  <text x="108" y="525" fill="#123C3A" font-family="Arial, sans-serif" font-size="18" font-weight="700">Evolução dos níveis médios</text>
  <text x="108" y="550" fill="#7B8A85" font-family="Arial, sans-serif" font-size="13">Série temporal normalizada · reservatórios do Tietê</text>
  <path d="M116 704H864" stroke="#DDE5E0"/><path d="M116 650H864" stroke="#E8EEEA"/><path d="M116 596H864" stroke="#E8EEEA"/>
  <path d="M132 686C196 662 214 679 270 626C321 578 348 641 396 597C451 546 470 610 521 574C578 534 611 585 659 531C703 481 750 533 793 501C821 480 844 492 858 474" stroke="#1E7467" stroke-width="6" stroke-linecap="round"/>
  <path d="M132 686C196 662 214 679 270 626C321 578 348 641 396 597C451 546 470 610 521 574C578 534 611 585 659 531C703 481 750 533 793 501C821 480 844 492 858 474V704H132Z" fill="#1E7467" fill-opacity=".1"/>
  <g fill="#81918B" font-family="Arial, sans-serif" font-size="12"><text x="128" y="732">2000</text><text x="304" y="732">2006</text><text x="490" y="732">2012</text><text x="678" y="732">2018</text><text x="824" y="732">2025</text></g>
  <rect x="928" y="484" width="408" height="274" rx="12" fill="#123C3A"/>
  <text x="960" y="525" fill="#F5F1EA" font-family="Arial, sans-serif" font-size="18" font-weight="700">Leituras da análise</text>
  <text x="960" y="570" fill="#A9C4B8" font-family="Arial, sans-serif" font-size="14">PRESSÃO AMBIENTAL</text><text x="960" y="600" fill="#F5F1EA" font-family="Arial, sans-serif" font-size="28" font-weight="700">IQR 9,0</text>
  <line x1="960" y1="626" x2="1304" y2="626" stroke="#507A6E"/>
  <text x="960" y="663" fill="#A9C4B8" font-family="Arial, sans-serif" font-size="14">FIGURAS PUBLICADAS</text><text x="960" y="693" fill="#F5F1EA" font-family="Arial, sans-serif" font-size="28" font-weight="700">8 gráficos · 4 fontes</text>
  <text x="960" y="730" fill="#D9B46B" font-family="Arial, sans-serif" font-size="13" font-weight="700">EXPLORAR O PROJETO ↗</text>
</svg>
